<svg width="1033" height="1543" viewBox="0 0 1033 1543" fill="none" xmlns="http://www.w3.org/2000/svg">
<g filter="url(#filter0_f_181_201)">
<path fill-rule="evenodd" clip-rule="evenodd" d="M531.076 241.727C609.139 229.798 671.256 366.965 715.903 489.586C753.018 591.52 742.28 718.548 749.582 841.838C758.609 994.251 831.409 1203.13 762.94 1283.73C688.855 1370.95 617.553 1118.56 531.076 1099.07C466.034 1084.42 407.598 1243.04 348.232 1190.31C281.725 1131.24 235.969 981.289 241.443 841.838C246.758 706.453 325.462 641.799 373.687 541.877C425.919 433.653 454.169 253.478 531.076 241.727Z" fill="url(#paint0_linear_181_201)"/>
</g>
<defs>
<filter id="filter0_f_181_201" x="0.577408" y="0.577408" width="1031.85" height="1541.85" filterUnits="userSpaceOnUse" color-interpolation-filters="sRGB">
<feFlood flood-opacity="0" result="BackgroundImageFix"/>
<feBlend mode="normal" in="SourceGraphic" in2="BackgroundImageFix" result="shape"/>
<feGaussianBlur stdDeviation="120.211" result="effect1_foregroundBlur_181_201"/>
</filter>
<linearGradient id="paint0_linear_181_201" x1="422.297" y1="824.39" x2="585.634" y2="1277.05" gradientUnits="userSpaceOnUse">
<stop stop-color="#B40081" stop-opacity="0.88"/>
<stop offset="1" stop-color="#0B73AD" stop-opacity="0.94"/>
</linearGradient>
</defs>
</svg>
