<svg width="1227" height="1543" viewBox="0 0 1227 1543" fill="none" xmlns="http://www.w3.org/2000/svg">
<g filter="url(#filter0_f_181_200)">
<path fill-rule="evenodd" clip-rule="evenodd" d="M633.233 241.814C738.824 229.885 822.848 367.06 883.24 489.688C933.443 591.629 918.918 718.665 928.795 841.962C941.006 994.385 1039.48 1203.28 946.863 1283.89C846.653 1371.11 750.206 1118.7 633.233 1099.21C545.254 1084.56 466.21 1243.19 385.91 1190.46C295.949 1131.39 234.057 981.421 241.462 841.962C248.65 706.569 355.109 641.911 420.341 541.983C490.993 433.753 529.205 253.566 633.233 241.814Z" fill="url(#paint0_linear_181_200)"/>
</g>
<defs>
<filter id="filter0_f_181_200" x="0.439224" y="0.66481" width="1226.16" height="1541.91" filterUnits="userSpaceOnUse" color-interpolation-filters="sRGB">
<feFlood flood-opacity="0" result="BackgroundImageFix"/>
<feBlend mode="normal" in="SourceGraphic" in2="BackgroundImageFix" result="shape"/>
<feGaussianBlur stdDeviation="120.211" result="effect1_foregroundBlur_181_200"/>
</filter>
<linearGradient id="paint0_linear_181_200" x1="486.093" y1="824.513" x2="613.517" y2="1302.15" gradientUnits="userSpaceOnUse">
<stop stop-color="#FF00B8" stop-opacity="0.88"/>
<stop offset="1" stop-color="#89199B" stop-opacity="0.94"/>
</linearGradient>
</defs>
</svg>
